<?xml version="1.0" standalone="no"?>
<!DOCTYPE svg PUBLIC "-//W3C//DTD SVG 20010904//EN"
 "http://www.w3.org/TR/2001/REC-SVG-20010904/DTD/svg10.dtd">
<svg version="1.0" xmlns="http://www.w3.org/2000/svg"
 width="1080.000000pt" height="1080.000000pt" viewBox="0 0 1080.000000 1080.000000"
 preserveAspectRatio="xMidYMid meet">

<g transform="translate(0.000000,1080.000000) scale(0.100000,-0.100000)"
fill="#000000" stroke="none">
<path d="M4890 8900 l0 -30 -255 0 -255 0 0 -35 0 -35 -95 0 -95 0 0 -30 0
-30 -65 0 -65 0 0 -29 c0 -29 -1 -30 -62 -35 -35 -4 -79 -5 -98 -4 -33 3 -35
1 -38 -29 l-3 -33 -94 0 -94 0 -3 -31 -3 -32 -92 2 -93 2 0 -35 0 -36 -65 0
-65 0 0 -29 c0 -26 -4 -30 -32 -33 -29 -3 -33 -7 -33 -33 l-1 -30 -97 -3 -97
-3 0 -29 0 -30 -65 0 -65 0 0 30 c0 29 -1 29 -62 32 -63 3 -63 3 -66 36 l-3
32 -160 0 -159 0 0 30 0 30 -95 0 -95 0 0 35 0 35 -160 0 -160 0 0 30 0 30
-260 0 -260 0 0 35 0 34 -385 1 -385 0 0 -35 c0 -32 2 -35 30 -35 l30 0 0 -95
0 -95 35 0 35 0 0 -65 0 -65 30 0 30 0 0 -65 0 -65 35 0 35 0 0 -65 0 -65 30
0 30 0 0 -65 0 -65 30 0 30 0 0 -65 0 -65 35 0 35 0 0 -65 0 -65 30 0 c29 0
29 -1 32 -62 3 -63 3 -63 36 -66 28 -3 32 -7 32 -33 0 -26 3 -29 30 -29 27 0
30 -3 30 -30 0 -28 3 -30 35 -30 l35 0 0 -100 0 -100 30 0 30 0 0 -65 0 -65
35 0 35 0 0 -65 c0 -64 0 -64 28 -62 26 2 27 1 30 -60 3 -62 3 -63 32 -63 25
0 30 -5 36 -35 5 -30 10 -35 35 -35 29 0 29 0 29 -64 l0 -65 -32 -3 -33 -3 -1
-60 c-2 -60 -2 -60 -33 -63 l-31 -3 0 -125 0 -124 -30 0 -30 0 0 -100 0 -100
-35 0 -35 0 0 -255 0 -255 -95 0 -95 0 0 -35 0 -35 -65 0 -65 0 0 -30 0 -30
-65 0 -65 0 0 -30 c0 -27 -3 -30 -30 -30 -28 0 -30 -3 -30 -35 l0 -35 -65 0
-65 0 0 -30 c0 -28 -3 -30 -35 -30 -33 0 -35 -2 -35 -35 l0 -35 -65 0 -65 0 0
-30 c0 -27 -3 -30 -30 -30 -28 0 -30 -3 -30 -34 0 -32 -3 -35 -32 -38 -28 -2
-34 -8 -36 -30 -3 -24 -8 -28 -33 -28 -27 0 -29 -3 -29 -35 0 -32 -2 -35 -30
-35 -27 0 -30 -3 -30 -30 0 -28 -3 -30 -35 -30 -32 0 -35 -2 -35 -30 0 -27 -3
-30 -30 -30 -28 0 -30 -3 -30 -35 0 -33 -2 -35 -35 -35 -32 0 -35 -2 -35 -30
0 -27 -3 -30 -30 -30 l-30 0 0 -64 0 -65 -33 -3 c-28 -3 -32 -7 -35 -35 -3
-29 -7 -33 -33 -33 l-29 0 0 -450 0 -450 65 0 65 0 0 -30 c0 -27 3 -30 30 -30
28 0 30 -3 30 -35 0 -32 -2 -35 -30 -35 l-30 0 0 -65 0 -65 -35 0 c-32 0 -35
-2 -35 -30 0 -27 -3 -30 -30 -30 -28 0 -30 -3 -30 -35 l0 -35 195 0 195 0 0
-30 0 -30 66 0 c64 0 66 -1 60 -22 -3 -13 -6 -26 -6 -30 0 -5 -13 -8 -30 -8
-28 0 -30 -3 -30 -35 0 -32 -2 -35 -30 -35 -27 0 -30 -3 -30 -30 0 -28 -3 -30
-35 -30 l-35 0 0 -65 0 -65 -30 0 c-28 0 -30 -3 -30 -35 0 -33 -2 -35 -35 -35
l-35 0 0 -95 0 -95 -30 0 -30 0 0 -65 0 -65 -35 0 c-19 0 -34 -3 -34 -7 1 -5
1 -47 0 -95 l-1 -88 -30 0 -30 0 0 -1085 0 -1085 1479 0 1480 0 3 37 3 37 48
-3 c42 -2 47 0 47 18 0 20 -6 21 -80 21 l-80 0 0 65 0 65 -35 0 c-24 0 -35 5
-35 15 0 8 9 15 20 15 18 0 20 7 20 65 0 51 3 65 15 65 8 0 15 7 15 15 0 8 7
15 15 15 8 0 15 7 15 15 0 8 7 15 15 15 8 0 15 7 15 15 0 8 6 15 14 15 8 0 16
-7 20 -15 3 -8 12 -15 21 -15 8 0 15 -7 15 -15 0 -10 10 -15 30 -15 20 0 30
-5 30 -15 0 -8 7 -15 15 -15 10 0 15 -11 15 -35 0 -28 4 -35 20 -35 11 0 20
-7 20 -15 0 -8 7 -15 15 -15 8 0 15 -7 15 -15 0 -8 7 -15 15 -15 12 0 15 -14
15 -65 l0 -65 -30 0 c-20 0 -30 -5 -30 -15 0 -8 -9 -15 -20 -15 -11 0 -20 -6
-20 -14 0 -9 -12 -16 -27 -18 -17 -2 -29 -10 -31 -20 -3 -14 3 -18 27 -18 20
0 31 -5 31 -14 0 -7 14 -16 31 -20 17 -3 1745 -6 3840 -6 l3809 0 0 890 c0
883 0 890 -20 890 -19 0 -20 7 -20 130 l0 130 -35 0 -35 0 0 95 0 95 -30 0
-30 0 0 65 0 65 -35 0 -35 0 0 100 0 100 -30 0 -30 0 0 60 0 60 -30 0 -30 0 0
165 0 165 60 0 60 0 0 30 0 30 65 0 65 0 0 30 c0 30 1 30 55 30 l55 0 0 100
c0 93 -1 100 -20 100 -16 0 -20 7 -20 30 0 28 -3 30 -35 30 l-35 0 0 65 0 65
55 0 55 0 0 485 c0 478 0 485 -20 485 -18 0 -20 7 -20 65 l0 65 -35 0 -35 0 0
65 0 65 -30 0 c-27 0 -30 3 -30 30 0 28 -3 30 -35 30 l-35 0 0 65 0 65 -30 0
c-27 0 -30 3 -30 30 0 27 -3 30 -30 30 -28 0 -30 3 -30 35 0 33 -2 35 -35 35
-32 0 -35 2 -35 30 0 27 -3 30 -30 30 -28 0 -30 3 -30 35 0 33 -2 35 -35 35
-32 0 -35 2 -35 30 l0 30 -64 0 -65 0 -3 33 c-3 28 -7 32 -30 32 -25 -1 -28 3
-28 32 0 31 -2 33 -35 33 -32 0 -35 2 -35 30 l0 30 -60 0 -60 0 0 35 0 35 -65
0 -65 0 0 30 c0 28 -3 30 -35 30 -33 0 -35 2 -35 35 0 32 -2 35 -30 35 l-30 0
0 95 0 95 -35 0 -35 0 0 130 0 130 -30 0 -29 0 -3 128 c-2 93 -6 127 -15 128
-7 1 -20 2 -28 3 -12 1 -15 15 -15 61 l0 60 -35 0 c-33 0 -35 2 -35 35 0 32
-2 35 -30 35 -27 0 -30 3 -30 30 0 27 3 30 30 30 28 0 30 3 30 35 0 33 2 35
35 35 l35 0 0 65 0 65 30 0 30 0 0 60 0 60 30 0 30 0 0 65 0 65 35 0 35 0 0
65 0 65 30 0 30 0 0 65 0 65 35 0 35 0 0 65 0 65 30 0 30 0 0 65 0 65 36 0 35
0 -1 53 c-2 77 -3 77 30 77 27 0 30 3 30 30 0 27 3 30 30 30 28 0 30 3 30 35
0 33 2 35 35 35 l35 0 0 95 0 95 30 0 c27 0 30 3 30 29 0 26 4 30 33 33 32 3
32 3 35 66 3 61 3 62 32 62 l30 0 0 65 0 65 35 0 c33 0 35 2 35 35 0 32 2 35
30 35 30 0 30 0 30 59 l0 60 33 3 c28 3 32 7 35 36 l3 32 -455 0 -456 0 0 -30
0 -30 -210 -1 c-115 -1 -216 -2 -222 -3 -7 0 -14 -16 -16 -33 l-3 -33 -130 0
-129 0 0 -30 0 -30 -125 0 -125 0 0 -35 0 -35 -100 0 -100 0 0 -30 0 -30 -125
0 -125 0 0 -35 0 -35 -100 0 -100 0 0 35 0 35 -65 0 -65 0 0 30 c0 27 -3 30
-30 30 -28 0 -30 3 -30 35 l0 35 -65 0 -65 0 0 30 0 30 -64 0 -65 0 -3 33 c-3
32 -3 32 -65 35 -62 3 -63 3 -63 32 l0 30 -94 0 -95 0 -3 33 -3 32 -127 3
-128 3 0 29 0 30 -65 0 -65 0 0 30 0 30 -95 0 -95 0 0 35 0 35 -225 0 -225 0
0 30 0 30 -615 0 -615 0 0 -30z m1270 -4790 c0 -5 25 -10 55 -10 48 0 55 -2
55 -20 0 -13 7 -20 20 -20 16 0 20 -7 20 -35 0 -19 5 -35 10 -35 6 0 10 -7 10
-16 0 -8 7 -23 16 -31 14 -15 13 -18 -10 -38 -14 -12 -26 -28 -26 -34 0 -7 -4
-9 -10 -6 -5 3 -10 1 -10 -5 0 -19 -48 -60 -70 -60 -11 0 -20 -4 -20 -10 0 -5
-9 -10 -20 -10 -11 0 -20 -4 -20 -10 0 -5 -13 -10 -30 -10 -16 0 -30 -4 -30
-10 0 -6 -38 -10 -94 -10 -53 0 -98 4 -101 10 -3 6 -14 10 -23 10 -10 0 -24 9
-32 20 -8 12 -26 20 -42 20 -15 0 -28 5 -28 10 0 6 -7 10 -15 10 -9 0 -15 9
-15 23 0 12 -9 29 -20 37 -14 10 -20 26 -20 52 0 21 5 38 10 38 6 0 10 8 10
18 0 20 73 92 93 92 7 0 19 9 27 20 13 18 26 20 162 20 92 0 148 -4 148 -10z
m-2726 -2126 c3 -9 6 -29 6 -45 0 -22 5 -29 20 -29 17 0 20 -7 20 -39 0 -30 4
-40 20 -44 12 -3 20 -14 20 -26 0 -14 6 -21 20 -21 17 0 20 -7 20 -40 0 -36 3
-40 25 -40 23 0 25 -4 25 -45 0 -38 3 -45 20 -45 13 0 20 -7 20 -20 0 -19 -7
-20 -170 -20 l-170 0 0 -45 c0 -41 -2 -45 -25 -45 l-25 0 0 130 0 130 25 0
c22 0 25 4 25 39 0 31 4 41 20 46 17 5 20 15 20 66 0 52 2 59 20 59 15 0 20 7
20 25 0 29 34 36 44 9z m3956 -119 c0 -78 2 -85 20 -85 19 0 20 -7 20 -150 l0
-150 -45 0 -45 0 0 45 0 44 -127 3 c-112 3 -128 5 -131 21 -3 13 3 17 22 17
24 0 26 3 26 45 0 38 3 45 20 45 17 0 20 7 20 40 0 33 3 40 20 40 13 0 20 7
20 19 0 13 8 21 23 23 14 2 23 11 25 26 2 14 10 22 23 22 16 0 19 7 19 40 l0
40 45 0 45 0 0 -85z m-4810 -1160 c0 -10 10 -15 30 -15 20 0 30 -5 30 -15 0
-8 9 -15 20 -15 11 0 29 -9 40 -20 11 -11 25 -20 30 -20 6 0 10 -7 10 -15 0
-8 7 -15 15 -15 8 0 15 -7 15 -15 0 -8 7 -15 15 -15 10 0 15 -11 15 -35 0 -24
5 -35 15 -35 12 0 15 -17 15 -95 0 -78 -3 -95 -15 -95 -10 0 -15 -10 -15 -30
0 -20 -5 -30 -15 -30 -12 0 -15 13 -15 60 0 45 -4 62 -15 66 -8 4 -15 12 -15
20 0 8 -7 14 -15 14 -9 0 -18 7 -21 15 -4 8 -12 15 -20 15 -8 0 -14 7 -14 15
0 8 -7 15 -15 15 -8 0 -15 7 -15 15 0 8 -7 15 -15 15 -8 0 -15 9 -15 20 0 11
-7 20 -15 20 -8 0 -15 7 -15 15 0 8 -6 15 -14 15 -8 0 -16 7 -20 15 -4 10 -20
15 -51 15 -33 0 -45 4 -45 15 0 10 -11 15 -35 15 -25 0 -35 4 -35 15 0 9 -7
18 -15 21 -8 4 -15 12 -15 20 0 10 14 14 50 14 38 0 50 4 50 15 0 12 14 15 65
15 51 0 65 -3 65 -15z"/>
</g>
</svg>
